<?xml version="1.0" encoding="iso-8859-1"?>
<!-- Uploaded to: SVG Repo, www.svgrepo.com, Generator: SVG Repo Mixer Tools -->
<svg fill="#ffffff" height="800px" width="800px" version="1.1" id="Capa_1" xmlns="http://www.w3.org/2000/svg" xmlns:xlink="http://www.w3.org/1999/xlink" 
	 viewBox="0 0 361.868 361.868" xml:space="preserve">
<g>
	<g>
		<path d="M265.463,269.929c3.573,0,5.819,2.062,6.84,3.29l11.539-9.583c-4.595-5.534-11.294-8.707-18.379-8.707
			c-13.211,0-23.959,10.748-23.959,23.959s10.748,23.959,23.959,23.959c7.085,0,13.784-3.173,18.379-8.707l-11.539-9.583
			c-1.021,1.229-3.267,3.29-6.84,3.29c-4.94,0-8.959-4.019-8.959-8.959S260.522,269.929,265.463,269.929z"/>
		<path d="M140.413,229.235c-0.749-0.105-1.232-0.301-1.497-0.452c0.189-0.346,0.641-0.937,1.562-1.617
			c3.835-2.83,9.842,1.984,9.902,2.034l4.779-5.78l4.824-5.743c-2.188-1.837-5.419-3.847-9.18-5.128v-2.788h-15v2.927
			c-1.426,0.594-2.844,1.383-4.234,2.41c-6.103,4.504-8.91,11.182-7.327,17.427c1.556,6.133,6.954,10.565,14.089,11.564
			c6.329,0.887,9.979,1.815,10.852,2.76c0.022,0.111,0.063,0.425-0.012,1.037c-0.077,0.631-0.275,1.352-1.653,1.912
			c-2.887,1.174-8.392,0.504-13.66-3.729l-9.396,11.692c3.505,2.816,7.392,4.878,11.343,6.127v3.558h15v-2.969
			c0.805-0.22,1.597-0.472,2.363-0.783c6.142-2.497,10.112-7.596,10.893-13.989C166.12,232.838,148.757,230.405,140.413,229.235z"/>
		<path d="M142.937,185.236c-29.428,0-53.368,23.941-53.368,53.368s23.94,53.368,53.368,53.368s53.368-23.941,53.368-53.368
			S172.364,185.236,142.937,185.236z M142.937,276.972c-21.156,0-38.368-17.212-38.368-38.368s17.212-38.368,38.368-38.368
			s38.368,17.212,38.368,38.368S164.093,276.972,142.937,276.972z"/>
		<path d="M361.868,134.595L96.196,29.04l-51.26,129.017H0v161.094h229.62c9.537,8.499,22.094,13.677,35.843,13.677
			c29.742,0,53.939-24.197,53.939-53.94c0-8.476-1.971-16.499-5.47-23.643L361.868,134.595z M104.599,48.519l237.791,94.478
			l-38.833,97.741c-5.019-5.011-11.021-9.032-17.684-11.766v-70.913h-33.232c0.557-22.001-12.691-42.657-33.644-50.982
			c-13.25-5.263-27.754-5.052-40.842,0.593c-13.09,5.646-23.197,16.051-28.46,29.299c-2.687,6.76-3.946,13.921-3.758,21.09h-84.86
			L104.599,48.519z M214.373,158.057c-3.034-4.545-8.148-7.711-13.967-11.023c-0.657-0.375-1.034-0.735-1.225-0.973
			c0.305-0.251,0.941-0.634,2.048-0.926c4.617-1.219,8.414,5.478,8.451,5.545l6.575-3.605l6.604-3.556
			c-0.228-0.423-2.332-4.227-6.104-7.639c-0.182-0.164-0.367-0.315-0.551-0.473l1.046-2.634l-13.939-5.539l-1.091,2.745
			c-1.6,0.017-3.21,0.228-4.814,0.651c-7.335,1.933-12.41,7.102-13.244,13.49c-0.681,5.217,1.549,10.316,5.917,13.937h-29.125
			c-0.192-5.281,0.7-10.567,2.68-15.552c3.784-9.524,11.051-17.005,20.461-21.064c9.411-4.058,19.84-4.21,29.362-0.426
			c15.192,6.035,24.756,21.082,24.184,37.042L214.373,158.057L214.373,158.057z M15,173.057h255.873v52.163
			c-1.78-0.178-3.584-0.272-5.41-0.272c-29.742,0-53.939,24.197-53.939,53.94c0,9.124,2.285,17.721,6.301,25.263H15V173.057z
			 M265.463,317.828c-21.472,0-38.939-17.468-38.939-38.94s17.468-38.94,38.939-38.94s38.939,17.468,38.939,38.94
			S286.935,317.828,265.463,317.828z"/>
	</g>
	<g>
	</g>
	<g>
	</g>
	<g>
	</g>
	<g>
	</g>
	<g>
	</g>
	<g>
	</g>
	<g>
	</g>
	<g>
	</g>
	<g>
	</g>
	<g>
	</g>
	<g>
	</g>
	<g>
	</g>
	<g>
	</g>
	<g>
	</g>
	<g>
	</g>
</g>
</svg>